<?xml version="1.0" encoding="UTF-8"?>
<svg width="32px" height="32px" viewBox="0 0 32 32" version="1.1" xmlns="http://www.w3.org/2000/svg">
    <g stroke="none" stroke-width="1" fill="none" fill-rule="evenodd">
        <path d="M24,2H8C5.8,2,4,3.8,4,6v18c0,1.7,1.1,3.1,2.6,3.7L6,30h4l0.6-2h10.8l0.6,2h4l-0.6-2.3 C27,27.1,28,25.7,28,24V6C28,3.8,26.2,2,24,2z M8.6,26c-1,0-1.8-0.8-1.8-1.8s0.8-1.8,1.8-1.8s1.8,0.8,1.8,1.8S9.6,26,8.6,26z M23.4,26c-1,0-1.8-0.8-1.8-1.8s0.8-1.8,1.8-1.8s1.8,0.8,1.8,1.8S24.4,26,23.4,26z M26,18H6V6h20V18z" fill="#2563EB"/>
    </g>
</svg>
